<svg id="SvgjsSvg1103" width="288" height="288" xmlns="http://www.w3.org/2000/svg" version="1.1" xmlns:xlink="http://www.w3.org/1999/xlink" xmlns:svgjs="http://svgjs.com/svgjs"><defs id="SvgjsDefs1104"></defs><g id="SvgjsG1105"><svg xmlns="http://www.w3.org/2000/svg" xmlns:svgjs="http://svgjs.com/svgjs" xmlns:xlink="http://www.w3.org/1999/xlink" viewBox="0 0 288 288" width="288" height="288"><svg xmlns="http://www.w3.org/2000/svg" enable-background="new 0 0 512 512" viewBox="0 0 512 512" width="288" height="288"><path fill="#f0f0f0" d="M448.2,115.8v130.1c0,22.1-17.9,40-40,40h-37.6v-78.5c0-22.1-17.9-40-40-40H131.4v-51.5			c0-22.1,17.9-40,40-40h236.9C430.3,75.8,448.2,93.7,448.2,115.8z" class="color00efd1 svgShape color43dde6"></path><path fill="#364f6b" d="M380.6,285.8v41.5c0,22.1-17.9,40-40,40H203.4l-62.3,68.9l-15.8-68.9h-21.5			c-22.1,0-40-17.9-40-40V197.3c0-22.1,17.9-40,40-40h236.9c22.1,0,40,17.9,40,40V285.8z" class="color00acea svgShape color364f6b"></path><path fill="#fc5185" d="M236.6 243.8H119c-5.5 0-10-4.5-10-10s4.5-10 10-10h117.7c5.5 0 10 4.5 10 10S242.2 243.8 236.6 243.8zM323.7 297.7H119c-5.5 0-10-4.5-10-10s4.5-10 10-10h204.7c5.5 0 10 4.5 10 10S329.2 297.7 323.7 297.7z" class="colorfedb41 svgShape colorfc5185"></path></svg></svg></g></svg>