<svg id="SvgjsSvg1079" width="288" height="288" xmlns="http://www.w3.org/2000/svg" version="1.1" xmlns:xlink="http://www.w3.org/1999/xlink" xmlns:svgjs="http://svgjs.com/svgjs"><defs id="SvgjsDefs1080"></defs><g id="SvgjsG1081"><svg xmlns="http://www.w3.org/2000/svg" xmlns:xlink="http://www.w3.org/1999/xlink" data-name="Layer 1" viewBox="0 0 120 120" width="288" height="288" version="1.1" xmlns:svgjs="http://svgjs.com/svgjs"><path fill="#d2d2d2" fill-rule="evenodd" d="M93.9996,120h-68a25.9482,25.9482,0,0,1-26-26V26a25.9482,25.9482,0,0,1,26-26h68a25.9482,25.9482,0,0,1,26,26V94A25.9482,25.9482,0,0,1,93.9996,120Z" class="colord8d6cc svgShape"></path><path fill="#4cd1d9" fill-rule="evenodd" d="M119.99753,92.87463v1.12a25.91354,25.91354,0,0,1-8.08,18.86921,25.26921,25.26921,0,0,1-4,3.12V92.87463Z" class="color4cd964 svgShape"></path><rect width="12.086" height="30" x="107.914" y="62.873" fill="#364f6b" class="colorff9500 svgShape"></rect><rect width="12.086" height="30" x="107.914" y="32.873" fill="#43dde6" class="color5ac8fa svgShape"></rect><rect width="12.086" height="10" x="107.914" y="32.873" fill="url(#b)"></rect><rect width="12.086" height="10" x="107.915" y="62.874" fill="url(#a)"></rect><path fill="url(#c)" fill-rule="evenodd" d="M107.914,92.87463v8h11.14344A26.10473,26.10473,0,0,0,119.9996,94V92.87463Z"></path><path fill="#fc5185" fill-rule="evenodd" d="M119.99973,26A25.91639,25.91639,0,0,0,107.914,4.04135V32.87326h12.0857Z" class="colorc4c2ba svgShape"></path><path fill="#364f6b" d="M56.1843,99.99754a37.51911,37.51911,0,1,0-37.48088-37.519A37.65665,37.65665,0,0,0,56.1843,99.99754Zm0-24.97444c-12.77409,0-22.29729,5.928-25.31869,11.01478a34.59459,34.59459,0,1,1,50.63738.03823C78.48159,80.95115,68.99662,75.0231,56.1843,75.0231Zm0-6.61654c7.34319,0,12.96529-6.23408,12.96529-14.38044,0-7.64913-5.73685-14.0744-12.96529-14.0744-7.19021,0-12.96537,6.42527-12.92706,14.0744C43.25724,62.17248,48.87934,68.36833,56.1843,68.40656Z" class="colora9a29a svgShape"></path><path fill="url(#d)" fill-rule="evenodd" d="M107.91757,115.95642a25.98648,25.98648,0,0,0,6-5.2273V9.27087a25.98668,25.98668,0,0,0-6-5.22729Z"></path></svg></g></svg>