<svg id="SvgjsSvg1132" width="288" height="288" xmlns="http://www.w3.org/2000/svg" version="1.1" xmlns:xlink="http://www.w3.org/1999/xlink" xmlns:svgjs="http://svgjs.com/svgjs"><defs id="SvgjsDefs1133"></defs><g id="SvgjsG1134"><svg xmlns="http://www.w3.org/2000/svg" data-name="Layer 1" viewBox="0 0 24 24" width="288" height="288"><circle cx="12" cy="12" r="8" fill="#364f6b" class="color13e4ea svgShape"></circle><path fill="#fc5184" d="M14,13.75a.742.742,0,0,1-.335-.079l-2-1A.751.751,0,0,1,11.25,12V7a.75.75,0,0,1,1.5,0v4.536l1.585.793A.75.75,0,0,1,14,13.75Z" class="colorfff svgShape"></path><path fill="#f0f0f0" d="M12,22.75a10.838,10.838,0,0,1-2.134-.212.75.75,0,1,1,.295-1.471A9.378,9.378,0,0,0,12,21.25a.75.75,0,0,1,0,1.5ZM7.206,21.528a.748.748,0,0,1-.359-.091,10.833,10.833,0,0,1-1.77-1.212.75.75,0,0,1,.965-1.149A9.329,9.329,0,0,0,7.566,20.12a.75.75,0,0,1-.36,1.408Zm-3.62-3.371a.749.749,0,0,1-.631-.344A10.807,10.807,0,0,1,1.979,15.9a.75.75,0,0,1,1.4-.543A9.1,9.1,0,0,0,4.217,17a.75.75,0,0,1-.631,1.156ZM2.024,13.464a.75.75,0,0,1-.747-.7c-.018-.252-.027-.508-.027-.765a10.91,10.91,0,0,1,.087-1.379.751.751,0,0,1,1.489.191A9.2,9.2,0,0,0,2.75,12q0,.333.023.661a.749.749,0,0,1-.7.8ZM2.9,8.6a.737.737,0,0,1-.312-.069.751.751,0,0,1-.37-.994A10.764,10.764,0,0,1,3.3,5.68a.75.75,0,0,1,1.212.884,9.236,9.236,0,0,0-.933,1.593A.748.748,0,0,1,2.9,8.6ZM6.008,4.744A.749.749,0,0,1,5.558,3.4,10.584,10.584,0,0,1,7.4,2.285a.75.75,0,1,1,.641,1.356,9.156,9.156,0,0,0-1.579.953A.749.749,0,0,1,6.008,4.744Zm4.568-1.893a.75.75,0,0,1-.105-1.493A10.812,10.812,0,0,1,12,1.25a.75.75,0,0,1,0,1.5,9.311,9.311,0,0,0-1.317.093A.651.651,0,0,1,10.576,2.851Z" class="color007da1 svgShape"></path><path fill="#f0f0f0" d="M12,22.75a.75.75,0,0,1,0-1.5,9.25,9.25,0,0,0,0-18.5.75.75,0,0,1,0-1.5,10.75,10.75,0,0,1,0,21.5Z" class="color007da1 svgShape"></path></svg></g></svg>