<svg width="169" height="149" viewBox="0 0 169 149" fill="none" xmlns="http://www.w3.org/2000/svg">
<path d="M96.9382 56.179L99.0488 47.8958C101.754 37.2792 113.058 34.625 118.372 34.625H125.618H137.212C144.318 34.2142 160.203 20.8354 168.103 5.78061C169.404 3.29974 167.498 0.5 164.697 0.5H145.907H142.501H134.313H122.719H111.126C99.0488 2.39583 73.446 11.875 67.6491 34.625L53.1569 91.5L50.5805 101.611L48.0041 111.722L45.4277 121.833L39.9356 143.387C39.2912 145.916 41.202 148.375 43.8118 148.375H70.3374C72.1661 148.375 73.762 147.135 74.2135 145.363L76.3444 137L77.7936 131.313L79.2428 125.625L80.6921 119.937L82.1413 114.25L83.5905 108.562C87.0686 94.9125 87.9382 91.5 105.329 91.5H110.448C128.998 91.5 136.212 81.3889 137.5 76.3333C136.856 71.2778 132.09 61.1667 118.177 61.1667H106.583H100.814C98.2046 61.1667 96.2938 58.7079 96.9382 56.179Z" fill="#FF5B57"/>
<path d="M31.7819 91.5H32H41.616C44.4393 91.5 46.3741 88.6539 45.3355 86.0285L41.5 76.3333L49.0581 67.8228C51.3494 65.2428 49.5179 61.1667 46.0673 61.1667H31.7819H27.9173C9.36731 61.1667 2.15343 71.2778 0.865234 76.3333C1.50933 81.3889 6.27565 91.5 20.1881 91.5H31.7819Z" fill="#65DCC3"/>
</svg>
