<svg width="600" height="600" viewBox="0 0 600 600" fill="none" xmlns="http://www.w3.org/2000/svg">
<path d="M9.01941 12.0195C6.80272 12.0087 5 13.8027 5 16.0194V584C5 586.209 6.79086 588 9 588H119.778C121.987 588 123.778 586.209 123.778 584V137.886C123.778 135.677 125.569 133.886 127.778 133.886H394.173C411.641 133.654 449.929 141.687 463.344 175.676C476.759 209.665 450.767 244.629 436.095 257.862L338.937 363.814C336.472 366.502 331.989 364.758 331.989 361.11V212.411C331.989 210.202 330.198 208.411 327.989 208.411H214.416C212.207 208.411 210.416 210.202 210.416 212.411V584C210.416 586.209 212.207 588 214.416 588H590C592.209 588 594 586.209 594 584V472.9C594 470.69 592.209 468.9 590 468.9H411.641C408.846 468.9 404.095 469.875 407.448 465.417C410.802 460.96 505.732 358.157 552.777 307.313C566.518 291.294 592.603 242.539 587.013 175.676C581.423 108.813 539.036 65.1657 518.541 51.7001C509.023 43.6007 479.328 23.6914 436.513 14.1819C436.237 14.1206 435.952 14.0888 435.67 14.0874L9.01941 12.0195Z" fill="url(#paint0_linear_1644_244)" stroke="black"/>
<defs>
<linearGradient id="paint0_linear_1644_244" x1="299.5" y1="12" x2="299.5" y2="588" gradientUnits="userSpaceOnUse">
<stop stop-color="#E5E7EB"/>
<stop offset="1" stop-color="#374151"/>
</linearGradient>
</defs>
</svg>
